<svg width="546" height="726" viewBox="0 0 546 726" fill="none" xmlns="http://www.w3.org/2000/svg">
<path d="M545.533 54.4134C509.5 43.6744 506.059 57.9099 469.994 47.1613C433.961 36.4223 437.402 22.1867 401.337 11.4381C365.304 0.699111 361.864 14.9347 325.798 4.18609C289.766 -6.55293 293.206 -20.7885 257.141 -31.5371C221.076 -42.2857 217.635 -28.0501 181.603 -38.7892C145.538 -49.5378 148.978 -63.7733 112.945 -74.5124C76.912 -85.2514 73.4396 -71.0254 37.4066 -81.7644" stroke="#3D405B" stroke-opacity="0.16" stroke-width="0.824934" stroke-miterlimit="10"/>
<path d="M538.665 87.2768C502.632 76.5378 499.192 90.7734 463.126 80.0248C427.094 69.2858 430.534 55.0502 394.469 44.3017C358.436 33.5626 354.996 47.7982 318.931 37.0496C282.898 26.3106 286.338 12.0751 250.273 1.32648C214.208 -9.4221 210.768 4.81345 174.735 -5.92556C138.67 -16.6741 142.11 -30.9097 106.077 -41.6487C70.0441 -52.3877 66.5718 -38.1617 30.5388 -48.9007" stroke="#3D405B" stroke-opacity="0.16" stroke-width="0.824934" stroke-miterlimit="10"/>
<path d="M531.795 120.136C495.762 109.397 492.321 123.632 456.256 112.884C420.223 102.145 423.664 87.909 387.599 77.1605C351.566 66.4214 348.126 80.657 312.061 69.9084C276.028 59.1694 279.468 44.9339 243.403 34.1853C207.338 23.4367 203.898 37.6723 167.865 26.9333C131.8 16.1847 135.24 1.94914 99.207 -8.78987C63.1741 -19.5289 59.7017 -5.30289 23.6688 -16.0419" stroke="#3D405B" stroke-opacity="0.16" stroke-width="0.824934" stroke-miterlimit="10"/>
<path d="M524.922 152.994C488.889 142.255 485.449 156.491 449.384 145.742C413.351 135.003 416.791 120.768 380.726 110.019C344.693 99.2802 341.253 113.516 305.188 102.767C269.155 92.0282 272.595 77.7926 236.53 67.0441C200.465 56.2955 197.025 70.531 160.992 59.792C124.927 49.0435 128.367 34.8079 92.3343 24.0689C56.3014 13.3299 52.829 27.5559 16.7961 16.8169" stroke="#3D405B" stroke-opacity="0.16" stroke-width="0.824934" stroke-miterlimit="10"/>
<path d="M518.052 185.853C482.019 175.114 478.579 189.35 442.514 178.601C406.481 167.862 409.921 153.627 373.856 142.878C337.823 132.139 334.383 146.375 298.318 135.626C262.285 124.887 265.725 110.651 229.66 99.9029C193.595 89.1543 190.155 103.39 154.122 92.6509C118.057 81.9023 121.497 67.6667 85.4644 56.9277C49.4315 46.1887 45.9591 60.4147 9.92615 49.6757" stroke="#3D405B" stroke-opacity="0.16" stroke-width="0.824934" stroke-miterlimit="10"/>
<path d="M511.183 218.712C475.15 207.973 471.71 222.209 435.645 211.46C399.612 200.721 403.052 186.485 366.987 175.737C330.954 164.998 327.514 179.233 291.449 168.485C255.416 157.746 258.856 143.51 222.791 132.762C186.726 122.013 183.286 136.249 147.253 125.51C111.188 114.761 114.628 100.526 78.5955 89.7867C42.5626 79.0477 39.0902 93.2737 3.05728 82.5347" stroke="#3D405B" stroke-opacity="0.16" stroke-width="0.824934" stroke-miterlimit="10"/>
<path d="M504.311 251.575C468.278 240.836 464.837 255.072 428.772 244.323C392.739 233.584 396.18 219.349 360.115 208.6C324.082 197.861 320.642 212.097 284.576 201.348C248.544 190.609 251.984 176.374 215.919 165.625C179.854 154.877 176.414 169.112 140.381 158.373C104.316 147.625 107.756 133.389 71.7229 122.65C35.69 111.911 32.2176 126.137 -3.81528 115.398" stroke="#3D405B" stroke-opacity="0.16" stroke-width="0.824934" stroke-miterlimit="10"/>
<path d="M497.442 284.434C461.409 273.695 457.969 287.931 421.904 277.182C385.871 266.443 389.311 252.208 353.246 241.459C317.213 230.72 313.773 244.956 277.708 234.207C241.675 223.468 245.115 209.233 209.05 198.484C172.985 187.735 169.545 201.971 133.512 191.232C97.447 180.483 100.887 166.248 64.8543 155.509C28.8214 144.77 25.349 158.996 -10.6839 148.257" stroke="#3D405B" stroke-opacity="0.16" stroke-width="0.824934" stroke-miterlimit="10"/>
<path d="M490.569 317.293C454.536 306.554 451.096 320.79 415.031 310.041C378.998 299.302 382.439 285.066 346.373 274.318C310.341 263.579 306.9 277.814 270.835 267.066C234.802 256.327 238.243 242.091 202.178 231.343C166.113 220.594 162.672 234.83 126.639 224.091C90.5743 213.342 94.0146 199.107 57.9817 188.368C21.9488 177.629 18.4764 191.854 -17.5565 181.115" stroke="#3D405B" stroke-opacity="0.16" stroke-width="0.824934" stroke-miterlimit="10"/>
<path d="M483.699 350.156C447.666 339.417 444.226 353.653 408.161 342.904C372.128 332.165 375.568 317.93 339.503 307.181C303.47 296.442 300.03 310.678 263.965 299.929C227.932 289.19 231.372 274.955 195.307 264.206C159.242 253.458 155.802 267.693 119.769 256.954C83.704 246.206 87.1443 231.97 51.1114 221.231C15.0785 210.492 11.6061 224.718 -24.4268 213.979" stroke="#3D405B" stroke-opacity="0.16" stroke-width="0.824934" stroke-miterlimit="10"/>
<path d="M476.83 383.015C440.797 372.276 437.357 386.512 401.292 375.763C365.259 365.024 368.699 350.789 332.634 340.04C296.601 329.301 293.161 343.537 257.096 332.788C221.063 322.049 224.503 307.813 188.438 297.065C152.373 286.316 148.933 300.552 112.9 289.813C76.8348 279.064 80.2751 264.829 44.2422 254.09C8.20932 243.351 4.73692 257.577 -31.296 246.838" stroke="#3D405B" stroke-opacity="0.16" stroke-width="0.824934" stroke-miterlimit="10"/>
<path d="M469.959 415.879C433.927 405.14 430.486 419.375 394.421 408.627C358.388 397.888 361.829 383.652 325.764 372.903C289.731 362.164 286.29 376.4 250.225 365.651C214.192 354.912 217.633 340.677 181.568 329.928C145.503 319.18 142.062 333.415 106.029 322.676C69.9643 311.928 73.4046 297.692 37.3717 286.953C1.33878 276.214 -2.13362 290.44 -38.1665 279.701" stroke="#3D405B" stroke-opacity="0.16" stroke-width="0.824934" stroke-miterlimit="10"/>
<path d="M463.089 448.737C427.056 437.998 423.615 452.234 387.55 441.485C351.517 430.746 354.958 416.511 318.893 405.762C282.86 395.023 279.419 409.259 243.354 398.51C207.321 387.771 210.762 373.536 174.697 362.787C138.632 352.038 135.191 366.274 99.1585 355.535C63.0934 344.786 66.5337 330.551 30.5008 319.812C-5.53213 309.073 -9.00453 323.299 -45.0375 312.56" stroke="#3D405B" stroke-opacity="0.16" stroke-width="0.824934" stroke-miterlimit="10"/>
<path d="M456.218 481.596C420.185 470.857 416.745 485.093 380.68 474.344C344.647 463.605 348.087 449.37 312.022 438.621C275.989 427.882 272.549 442.118 236.484 431.369C200.451 420.63 203.891 406.394 167.826 395.646C131.761 384.897 128.321 399.133 92.2882 388.394C56.2231 377.645 59.6634 363.41 23.6305 352.671C-12.4024 341.932 -15.8748 356.158 -51.9078 345.419" stroke="#3D405B" stroke-opacity="0.16" stroke-width="0.824934" stroke-miterlimit="10"/>
<path d="M449.349 514.455C413.316 503.716 409.876 517.952 373.811 507.203C337.778 496.464 341.218 482.228 305.153 471.48C269.12 460.741 265.68 474.976 229.615 464.228C193.582 453.489 197.022 439.253 160.957 428.504C124.892 417.756 121.452 431.991 85.4187 421.252C49.3537 410.504 52.794 396.268 16.7611 385.529C-19.2719 374.79 -22.7442 389.016 -58.7772 378.277" stroke="#3D405B" stroke-opacity="0.16" stroke-width="0.824934" stroke-miterlimit="10"/>
<path d="M442.477 547.314C406.444 536.575 403.004 550.81 366.939 540.062C330.906 529.323 334.346 515.087 298.281 504.339C262.248 493.599 258.808 507.835 222.743 497.086C186.71 486.347 190.15 472.112 154.085 461.363C118.02 450.615 114.58 464.85 78.547 454.111C42.482 443.363 45.9223 429.127 9.88936 418.388C-26.1436 407.649 -29.616 421.875 -65.6489 411.136" stroke="#3D405B" stroke-opacity="0.16" stroke-width="0.824934" stroke-miterlimit="10"/>
<path d="M435.608 580.177C399.575 569.438 396.135 583.674 360.07 572.925C324.037 562.186 327.477 547.951 291.412 537.202C255.379 526.463 251.939 540.699 215.874 529.95C179.841 519.211 183.282 504.975 147.216 494.227C111.151 483.478 107.711 497.714 71.6782 486.975C35.6132 476.226 39.0535 461.991 3.02057 451.252C-33.0124 440.513 -36.4848 454.739 -72.5177 444" stroke="#3D405B" stroke-opacity="0.16" stroke-width="0.824934" stroke-miterlimit="10"/>
<path d="M428.737 613.036C392.704 602.297 389.264 616.533 353.199 605.784C317.166 595.045 320.606 580.809 284.541 570.061C248.508 559.322 245.068 573.557 209.003 562.809C172.97 552.07 176.41 537.834 140.345 527.086C104.28 516.337 100.84 530.573 64.8071 519.834C28.7421 509.085 32.1824 494.849 -3.85049 484.11C-39.8834 473.371 -43.3558 487.597 -79.3887 476.858" stroke="#3D405B" stroke-opacity="0.16" stroke-width="0.824934" stroke-miterlimit="10"/>
<path d="M421.866 645.895C385.833 635.156 382.393 649.391 346.328 638.643C310.295 627.904 313.735 613.668 277.67 602.92C241.637 592.181 238.197 606.416 202.132 595.668C166.099 584.929 169.54 570.693 133.474 559.944C97.4094 549.196 93.9692 563.431 57.9362 552.692C21.8712 541.944 25.3115 527.708 -10.7214 516.969C-46.7544 506.23 -50.2268 520.456 -86.2597 509.717" stroke="#3D405B" stroke-opacity="0.16" stroke-width="0.824934" stroke-miterlimit="10"/>
<path d="M414.995 678.758C378.963 668.019 375.522 682.255 339.457 671.506C303.424 660.767 306.865 646.532 270.8 635.783C234.767 625.044 231.326 639.28 195.261 628.531C159.228 617.792 162.669 603.557 126.604 592.808C90.5387 582.059 87.0984 596.295 51.0655 585.556C15.0004 574.807 18.4407 560.572 -17.5922 549.833C-53.6251 539.094 -57.0975 553.32 -93.1304 542.581" stroke="#3D405B" stroke-opacity="0.16" stroke-width="0.824934" stroke-miterlimit="10"/>
<path d="M408.126 711.617C372.093 700.878 368.653 715.114 332.588 704.365C296.555 693.626 299.995 679.391 263.93 668.642C227.897 657.903 224.457 672.139 188.392 661.39C152.359 650.651 155.799 636.415 119.734 625.667C83.6691 614.918 80.2288 629.154 44.1959 618.415C8.1309 607.666 11.5712 593.431 -24.4617 582.692C-60.4946 571.953 -63.967 586.179 -99.9999 575.44" stroke="#3D405B" stroke-opacity="0.16" stroke-width="0.824934" stroke-miterlimit="10"/>
</svg>
